# xmcd CD database file
#
# Track frame offsets:
#	150
#	6860
#	22649
#	37867
#	51592
#	60283
#	67443
#	77119
#	86907
#	99442
#	112157
#	135467
#	150889
#	160254
#	167109
#	176365
#
# Disc length: 2436 seconds
#
# Revision: 0
# Processed by: cddbd v1.5.1PL0 Copyright (c) Steve Scherf et al.
# Submitted via: CDex 1.51
#
DISCID=c3098210
DTITLE=Rainer Weisbecker - Frankfurter Lieder
DYEAR=2004
DGENRE=Blues
TTITLE0=Das Römerberg Lied
TTITLE1=Das Lied von unsrer Stadt am Maa
TTITLE2=Die Frau Rauscher aus de Klappergass
TTITLE3=Ich waas e klaa Häusche am Maa
TTITLE4=Ach Lisbeth du mei Reuwelche
TTITLE5=Frankfurter Böse Buwe Lied
TTITLE6=Sehn se, des is Franforterisch
TTITLE7=Frankforder Mädche
TTITLE8=Äppelwoi Blues
TTITLE9=Merr habbe dehaam en alte Griesbrei
TTITLE10=Einsam und per Pedes
TTITLE11=Jösthäusje Blues
TTITLE12=De Blues im Herz
TTITLE13=De Rattegickel aus de Unnergass
TTITLE14=E bissi Offebach
TTITLE15=Das Römerberg Lied (instrumental)
EXTD=YEAR: 2004
EXTT0=
EXTT1=
EXTT2=
EXTT3=
EXTT4=
EXTT5=
EXTT6=
EXTT7=
EXTT8=
EXTT9=
EXTT10=
EXTT11=
EXTT12=
EXTT13=
EXTT14=
EXTT15=
PLAYORDER=
